<?xml version="1.0" encoding="utf-8"?>
<!-- Generator: Adobe Illustrator 22.1.0, SVG Export Plug-In . SVG Version: 6.00 Build 0)  -->
<svg version="1.1" id="Layer_1" xmlns="http://www.w3.org/2000/svg" xmlns:xlink="http://www.w3.org/1999/xlink" x="0px" y="0px"
	 viewBox="0 0 235.9 100" style="enable-background:new 0 0 235.9 100;" xml:space="preserve">
<style type="text/css">
	.st0{fill:#FFFFFF;}
	.st1{fill:#A4BC15;}
</style>
<g>
	<g>
		<g>
			<path class="st0" d="M119.1,68.6c-0.1,0-0.8,0.1-2.3,0.3c-1.4,0.2-3.1,0.4-5,0.6s-3.7,0.3-5.2,0.3c-3.7,0-6.4-0.7-8.3-2.2
				s-3.1-3.7-3.8-6.6c-0.6-2.9-0.9-6.6-0.9-11c0-4.5,0.3-8.3,0.9-11.2c0.6-3,1.9-5.2,3.8-6.7s4.6-2.2,8.2-2.2c1.7,0,3.5,0.1,5.5,0.3
				c1.9,0.2,3.6,0.4,5,0.6s2.1,0.3,2.2,0.3l0.3-4.9c-0.1,0-0.7-0.2-2.1-0.4c-1.3-0.3-3-0.5-5.1-0.8c-2-0.3-4.2-0.4-6.4-0.4
				c-4.7,0-8.4,1-11,2.9s-4.4,4.8-5.4,8.5c-1,3.8-1.5,8.4-1.4,14c-0.1,5.4,0.4,10,1.4,13.7s2.8,6.6,5.3,8.5
				c2.6,1.9,6.3,2.9,11.1,2.9c1.9,0,3.9-0.2,6-0.4c2.1-0.3,3.8-0.5,5.2-0.8c1.4-0.3,2.2-0.4,2.2-0.4L119.1,68.6z"/>
			<polygon class="st0" points="124.9,75.2 155.4,75.2 155.4,69.9 130.4,69.9 130.4,52.2 151.1,52.2 151.1,47 130.4,47 130.4,29.9 
				155.4,29.9 155.4,24.6 124.9,24.6 			"/>
			<path class="st0" d="M179.3,58.3c5.5,0,9.5-1.6,12.1-4.6s3.9-7.3,3.9-12.8s-1.3-9.6-3.9-12.2c-2.6-2.7-6.7-4-12.1-4h-18.4v50.5
				h5.6V58.3H179.3z M166.5,52.9V30h12.7c3.6,0,6.3,0.9,8,2.6c1.7,1.8,2.5,4.5,2.4,8.2c0,3.8-0.8,6.7-2.4,8.9
				c-1.7,2.1-4.3,3.2-8,3.2C179.2,52.9,166.5,52.9,166.5,52.9z"/>
			<polygon class="st0" points="196.3,30 211.8,30 211.8,75.2 217.3,75.2 217.3,30 232.7,30 232.7,24.6 196.3,24.6 			"/>
			<path class="st1" d="M62.6,54.7L60.4,55c-0.7,0.1-1.4,0.3-2.2,0.5l-4.4,1c-1.4,0.4-2.9,0.8-4.3,1.3l-2.2,0.7
				c-0.7,0.2-1.4,0.5-2.1,0.8c-1.4,0.5-2.8,1.1-4.2,1.6c-2.7,1.2-5.6,2.4-8.2,3.9c-5.4,2.8-10.6,6.1-15.6,9.8l-3.4,2.7L21.1,50h-6.6
				L3.2,92h6.6l0,0c3.5-4.7,7.4-9,11.7-13c4.2-4,8.8-7.6,13.6-10.9c2.4-1.7,4.9-3.1,7.4-4.6l3.9-2c0.7-0.3,1.3-0.7,2-1l2-0.9
				c5.3-2.5,10.9-4.1,16.6-5.5L62.6,54.7z"/>
			<g>
				<path class="st0" d="M43.2,64.7c-0.5,0.3-1.1,0.7-1.7,1c-0.7,0.4-1.4,0.9-2.2,1.3l2.2,8.2h5.8l-3-11.1L43.2,64.7z"/>
				<path class="st0" d="M37.7,60.8c0.3-0.2,0.7-0.3,1-0.5c0.6-0.3,1.2-0.5,1.8-0.8c0.8-0.3,1.6-0.6,2.4-0.9l-9.1-33.9H21.3
					l-1.4,5.2h9.4L37.7,60.8z"/>
			</g>
			<g>
				<path class="st0" d="M80.1,68.9c-1.4,0.2-3.1,0.4-5,0.6s-3.7,0.3-5.2,0.3c-3.7,0-6.4-0.7-8.3-2.2c-1.9-1.5-3.1-3.7-3.8-6.6
					c-0.2-0.9-0.3-1.8-0.5-2.8c-1.8,0.6-3.6,1.3-5.3,2.1c0.2,1.2,0.4,2.3,0.7,3.3c1,3.7,2.8,6.6,5.3,8.5C60.6,74,64.3,75,69.1,75
					c1.9,0,3.9-0.2,6-0.4c2.1-0.3,3.8-0.5,5.2-0.8c1.4-0.3,2.2-0.4,2.2-0.4l-0.2-4.9C82.3,68.6,81.5,68.7,80.1,68.9z"/>
				<path class="st0" d="M53.5,55.1l3.4-0.8c-0.1-1.4-0.1-2.8-0.1-4.3c0-4.5,0.3-8.3,0.9-11.2c0.6-3,1.9-5.2,3.8-6.7
					c1.9-1.5,4.6-2.2,8.2-2.2c1.7,0,3.5,0.1,5.5,0.3c1.9,0.2,3.6,0.4,5,0.6s2.1,0.3,2.2,0.3l0.3-4.9c-0.1,0-0.7-0.2-2.1-0.4
					c-1.3-0.3-3-0.5-5.1-0.8c-2-0.3-4.2-0.4-6.4-0.4c-4.7,0-8.4,1-11,2.9s-4.4,4.8-5.4,8.5c-1,3.8-1.5,8.4-1.4,14c0,2,0,3.9,0.2,5.7
					C52.1,55.5,52.8,55.3,53.5,55.1z"/>
			</g>
		</g>
	</g>
</g>
</svg>
