<svg id="Layer_1" data-name="Layer 1" xmlns="http://www.w3.org/2000/svg" xmlns:xlink="http://www.w3.org/1999/xlink" viewBox="0 0 500 130.26"><defs><style>.cls-1{fill:#243746;fill-rule:evenodd;}.cls-2{fill:url(#linear-gradient);}</style><linearGradient id="linear-gradient" x1="5.52" y1="93.56" x2="182.35" y2="72.53" gradientUnits="userSpaceOnUse"><stop offset="0" stop-color="#a4bc15"/><stop offset="1" stop-color="#0799d6"/></linearGradient></defs><title>Logo Accept Positivo</title><path class="cls-1" d="M248.87,97.16c-.16,0-1.83.28-5,.73s-6.9.9-11.15,1.35-8.08.69-11.45.74q-12.18,0-18.4-4.86t-8.34-14.58q-2.11-9.75-2-24.4-.13-15,2-24.83t8.29-14.76Q209,11.66,221,11.67c3.77.05,7.8.27,12.08.69s8,.86,11,1.28,4.68.66,4.82.69l.62-10.75c-.11,0-1.63-.35-4.57-.93S238.26,1.5,233.73.93a122.11,122.11,0,0,0-14-.93Q204,0,195.35,6.41T183.43,25.29q-3.31,12.49-3.17,30.85Q180.1,74,183.32,86.41t11.82,18.78q8.58,6.42,24.56,6.47a118.87,118.87,0,0,0,13.16-.93q6.79-.87,11.53-1.74c3.16-.57,4.8-.88,4.94-.93Z"/><polygon class="cls-1" points="261.76 111.66 329.23 111.66 329.23 99.94 273.96 99.94 273.96 61.03 319.59 61.03 319.59 49.49 273.96 49.49 273.96 11.71 329.23 11.71 329.23 0 261.76 0 261.76 111.66"/><path class="cls-1" d="M382,74.37q18.15-.14,26.85-10.17t8.64-28.38q.07-18.15-8.64-27T382,0H341.34V111.66H353.7V74.37ZM353.7,62.51V11.87h28.12q12.09,0,17.57,5.83t5.41,18.12q.09,12.54-5.41,19.56t-17.57,7.13Z"/><polygon class="cls-1" points="419.5 11.9 453.81 11.9 453.81 111.66 466.03 111.66 466.03 11.9 500 11.9 500 0 419.5 0 419.5 11.9"/><path class="cls-1" d="M65.69,67.67c3.62-1.9,7.42-3.81,11.37-5.72L60.4,0H32.76L29.7,11.4H50.56Z"/><path class="cls-1" d="M80.06,81c-3.12,1.9-6.19,3.85-9.23,5.82l6.69,24.89H90.43L81.87,79.85Z"/><path class="cls-1" d="M111.38,47.52a96.71,96.71,0,0,1,1.86-16.21c1.43-6.59,4.18-11.51,8.29-14.76s10.14-4.88,18.11-4.88c3.77.05,7.8.27,12.08.69s8,.86,11,1.28,4.67.66,4.82.69l.62-10.75c-.12,0-1.64-.35-4.58-.93S156.94,1.5,152.42.93a122.44,122.44,0,0,0-14-.93Q122.65,0,114,6.41T102.11,25.29q-3,11.16-3.15,27Q105,49.84,111.38,47.52Z"/><path class="cls-1" d="M162.55,97.89q-4.77.67-11.15,1.35T140,100q-12.18,0-18.4-4.86t-8.34-14.58a96.31,96.31,0,0,1-1.87-16.71q-6,2.88-12,6A96.16,96.16,0,0,0,102,86.41q3.23,12.38,11.82,18.78t24.56,6.47a118.87,118.87,0,0,0,13.16-.93q6.79-.87,11.53-1.74c3.16-.57,4.81-.88,4.94-.93l-.45-10.9C167.39,97.2,165.72,97.44,162.55,97.89Z"/><path class="cls-2" d="M146.86,41.81C69.06,61,17.62,104.23,17.61,104.24L28.49,63.72a6.27,6.27,0,0,0-6.06-7.89h0a6.28,6.28,0,0,0-6.06,4.65L.26,120.81a7.51,7.51,0,0,0,7.26,9.45h0a7.51,7.51,0,0,0,5.3-2.18c7.73-7.73,16.59-16.75,25-23.52A371.41,371.41,0,0,1,77.53,76.8,340.48,340.48,0,0,1,121.11,54c15-6.91,31-12,47.07-16.79Q157.5,39.32,146.86,41.81Z"/></svg>